PathFileType	4	(X/Y/Z)	/Users/itak/Documents/Research/Walk-IL/dataset/trc/00514_00183.trc
DataRate	CameraRate	NumFrames	NumMarkers	Units	OrigDataRate	OrigDataStartFrame	OrigNumFrames
100.000000	100.000000	4	53	mm	100.000000	120	483
Frame#	Time	RPSI			LPSI			L3			STRN			T10			C7			CLAV			RBAK			LBAK			LSHO			LUPA			LAEL			LAOL			LWTS			LWPS			LFRA			LHPS			LHTS			RSHO			RUPA			RAEL			RAOL			RWTS			RWPS			RFRA			RIFD			RHTS			RHPS			RBHD			LFHD			RFHD			LBHD			LHIP			RHIP			RASI			LASI			LKNE			LTHI			LANK			LTIP			LTOE			LMT1			LMT5			LHEE			RKNE			RTHI			RANK			RTIP			RTOE			RMT1			RMT5			RHEE			LIFD			
		X1	Y1	Z1	X2	Y2	Z2	X3	Y3	Z3	X4	Y4	Z4	X5	Y5	Z5	X6	Y6	Z6	X7	Y7	Z7	X8	Y8	Z8	X9	Y9	Z9	X10	Y10	Z10	X11	Y11	Z11	X12	Y12	Z12	X13	Y13	Z13	X14	Y14	Z14	X15	Y15	Z15	X16	Y16	Z16	X17	Y17	Z17	X18	Y18	Z18	X19	Y19	Z19	X20	Y20	Z20	X21	Y21	Z21	X22	Y22	Z22	X23	Y23	Z23	X24	Y24	Z24	X25	Y25	Z25	X26	Y26	Z26	X27	Y27	Z27	X28	Y28	Z28	X29	Y29	Z29	X30	Y30	Z30	X31	Y31	Z31	X32	Y32	Z32	X33	Y33	Z33	X34	Y34	Z34	X35	Y35	Z35	X36	Y36	Z36	X37	Y37	Z37	X38	Y38	Z38	X39	Y39	Z39	X40	Y40	Z40	X41	Y41	Z41	X42	Y42	Z42	X43	Y43	Z43	X44	Y44	Z44	X45	Y45	Z45	X46	Y46	Z46	X47	Y47	Z47	X48	Y48	Z48	X49	Y49	Z49	X50	Y50	Z50	X51	Y51	Z51	X52	Y52	Z52	X53	Y53	Z53	

121	1.2	-962.8370361328125	965.838134765625	-250.5440979003906	-951.804443359375	967.0009765625	-373.9855041503906	-953.4293823242188	1042.432006835938	-317.9434204101562	-719.8898315429688	1185.745483398438	-321.6211547851562	-956.6286010742188	1147.538696289062	-312.6901550292969	-889.6010131835938	1371.912963867188	-310.2686462402344	-746.1473999023438	1283.445190429688	-318.9406433105469	-948.3041381835938	1255.519165039062	-223.2015991210938	-924.4232788085938	1321.426025390625	-395.3082885742188	-832.9122314453125	1363.433959960938	-473.0908203125	-861.322265625	1238.465698242188	-531.6110229492188	-869.0321655273438	1028.753051757812	-562.3178100585938	-931.6004028320312	1023.503662109375	-483.6517639160156	-792.9241333007812	831.845947265625	-534.8230590820312	-880.068603515625	804.0728149414062	-564.0262451171875	-858.38037109375	941.4968872070312	-566.862060546875	-859.196044921875	748.9788208007812	-564.0515747070312	-794.1078491210938	754.1647338867188	-555.76220703125	-832.2239379882812	1362.232299804688	-165.9876861572266	-854.1953735351562	1297.224487304688	-107.9638214111328	-867.5470581054688	1031.497680664062	-55.71634292602539	-918.9702758789062	1014.493041992188	-93.59857177734375	-780.5648193359375	821.9212646484375	-87.2255859375	-850.4584350585938	804.1925659179688	-32.54048538208008	-867.0911865234375	976.6571655273438	-48.07838821411133	-786.240478515625	664.570068359375	-74.46035766601562	-767.3865356445312	731.1548461914062	-59.10839080810547	-832.6192626953125	734.8970947265625	-29.78897857666016	-844.5069580078125	1511.47900390625	-223.1097564697266	-704.3685913085938	1580.27880859375	-348.4458923339844	-717.832763671875	1566.211059570312	-222.8262023925781	-841.6364135742188	1525.70654296875	-382.0529174804688	-840.7070922851562	888.6185913085938	-500.6592712402344	-866.8701171875	860.9990844726562	-121.0268020629883	-764.7217407226562	904.220458984375	-182.2082672119141	-751.5272827148438	916.7264404296875	-423.9317626953125	-856.5554809570312	466.3943176269531	-440.7535705566406	-831.0081787109375	622.0565795898438	-472.0346069335938	-985.9920043945312	47.96189880371094	-405.9590148925781	-898.027587890625	320.5820922851562	-435.5775146484375	-789.448486328125	38.48423767089844	-340.4896545410156	-867.3389282226562	42.11175155639648	-310.3481750488281	-875.77001953125	47.44293212890625	-411.2637329101562	-1036.4716796875	41.72424697875977	-347.4710083007812	-813.2119750976562	478.4883728027344	-165.2848052978516	-829.3507080078125	732.480712890625	-125.3266220092773	-999.365234375	82.78187561035156	-133.6604156494141	-837.6065063476562	336.0345764160156	-159.9919128417969	-805.924072265625	43.55418014526367	-162.5441741943359	-867.0343627929688	49.00226211547852	-205.9476470947266	-892.3264770507812	57.2982292175293	-112.5959701538086	-1052.42333984375	82.89484405517578	-182.0016479492188	-803.9353637695312	674.57958984375	-528.8895874023438	
122	1.21	-961.7481689453125	965.1831665039062	-252.4744567871094	-950.0125732421875	966.4680786132812	-375.8016967773438	-951.2699584960938	1042.622680664062	-319.9393310546875	-717.33740234375	1185.213134765625	-322.4971618652344	-953.7784423828125	1147.704345703125	-314.6948547363281	-886.481689453125	1371.876708984375	-312.1262817382812	-743.3353881835938	1282.962646484375	-319.9733276367188	-945.9888916015625	1255.700561523438	-225.2173004150391	-921.0346069335938	1321.412475585938	-397.2680358886719	-828.835693359375	1363.055541992188	-474.5572814941406	-857.442138671875	1238.274047851562	-533.2630615234375	-865.6544799804688	1028.61865234375	-564.1849365234375	-928.6383666992188	1023.497253417969	-485.8654174804688	-790.1198120117188	831.5466918945312	-536.3628540039062	-877.2827758789062	804.0660400390625	-566.1417846679688	-855.1161499023438	941.3496704101562	-568.7171020507812	-856.4559936523438	748.8859252929688	-566.1090087890625	-791.3931274414062	753.9091796875	-557.4636840820312	-829.8660278320312	1362.198852539062	-167.5293884277344	-852.382080078125	1297.376831054688	-109.5598526000977	-866.8388671875	1031.805908203125	-56.8062629699707	-918.2181396484375	1014.902038574219	-94.78984069824219	-780.3025512695312	821.9180908203125	-87.17833709716797	-850.6675415039062	804.593017578125	-32.92472457885742	-866.6021118164062	977.0070190429688	-49.02568054199219	-786.5007934570312	664.6681518554688	-73.86422729492188	-767.6127319335938	731.2559204101562	-58.61165237426758	-833.0609741210938	735.2589721679688	-29.77156829833984	-840.7512817382812	1511.383544921875	-224.5418243408203	-700.10302734375	1579.517944335938	-349.6167907714844	-713.8438110351562	1565.4873046875	-224.0230865478516	-837.5751342773438	1525.587890625	-383.4639892578125	-838.3237915039062	887.9246826171875	-501.8053894042969	-865.7346801757812	860.9672241210938	-122.1577758789062	-763.7178344726562	904.6659545898438	-182.9728851318359	-749.5594482421875	916.2440795898438	-424.7518615722656	-855.3168334960938	466.0232543945312	-441.1441650390625	-829.2709350585938	621.5772705078125	-472.4988403320312	-986.0629272460938	47.99425506591797	-405.9991760253906	-897.2183227539062	320.2638549804688	-435.8854370117188	-789.33203125	38.54949951171875	-340.403076171875	-867.3265380859375	42.0669059753418	-310.3339233398438	-875.76318359375	47.4263801574707	-411.2807006835938	-1036.5185546875	41.70697784423828	-347.4841613769531	-803.5825805664062	479.4780578613281	-167.6528930664062	-825.8822021484375	732.7849731445312	-127.1408081054688	-996.9027709960938	88.40412902832031	-135.3972473144531	-829.326171875	337.9761352539062	-161.9752044677734	-805.1076049804688	43.62435913085938	-162.5439605712891	-865.328125	50.00163650512695	-206.5001678466797	-891.1115112304688	59.64610290527344	-113.32080078125	-1049.371337890625	89.79117584228516	-184.2097320556641	-801.540283203125	674.3206787109375	-530.74658203125	
123	1.22	-960.4555053710938	964.6551513671875	-254.3283081054688	-948.0828247070312	966.0135498046875	-377.5573425292969	-949.1043701171875	1042.767333984375	-321.8844299316406	-714.7387084960938	1184.707763671875	-323.2763671875	-950.9642333984375	1147.875610351562	-316.6170654296875	-883.325927734375	1371.843017578125	-313.9286193847656	-740.4584350585938	1282.517822265625	-320.9230346679688	-943.636474609375	1255.891845703125	-227.2083587646484	-917.5753173828125	1321.401489257812	-399.19775390625	-824.6637573242188	1362.708618164062	-475.9563598632812	-853.4369506835938	1238.102294921875	-534.859130859375	-862.1179809570312	1028.505004882812	-565.9758911132812	-925.5433349609375	1023.513549804688	-488.02685546875	-787.2003784179688	831.2449340820312	-537.8619384765625	-874.403564453125	804.0906372070312	-568.2265014648438	-851.7186279296875	941.2350463867188	-570.5100708007812	-853.6272583007812	748.814208984375	-568.1395874023438	-788.5690307617188	753.6600341796875	-559.116943359375	-827.5027465820312	1362.192626953125	-169.0136413574219	-850.5814819335938	1297.560791015625	-111.1170120239258	-866.2156372070312	1032.147338867188	-57.92723083496094	-917.5408935546875	1015.341247558594	-96.03173828125	-780.1235961914062	821.9392700195312	-87.23755645751953	-850.9354248046875	804.9974365234375	-33.40352630615234	-866.1866455078125	977.371826171875	-50.00727462768555	-786.7623291015625	664.8114624023438	-73.43798828125	-767.8823852539062	731.3912963867188	-58.24042129516602	-833.5333251953125	735.6151123046875	-29.89523887634277	-836.9379272460938	1511.357055664062	-225.9255218505859	-695.7642211914062	1578.729125976562	-350.7840270996094	-709.7726440429688	1564.788452148438	-225.2193756103516	-833.4728393554688	1525.46533203125	-384.8408508300781	-835.8541259765625	887.2454223632812	-502.8999633789062	-864.406494140625	861.1196899414062	-123.1440277099609	-762.519775390625	905.1576538085938	-183.8015899658203	-747.485107421875	915.7546997070312	-425.6392822265625	-854.1646118164062	465.6695251464844	-441.5304565429688	-827.6354370117188	621.1084594726562	-472.9505004882812	-986.1505126953125	48.04137420654297	-406.0450439453125	-896.51318359375	319.9503173828125	-436.2022399902344	-789.2186889648438	38.60636901855469	-340.3323974609375	-867.303466796875	42.02537155151367	-310.3213806152344	-875.7560424804688	47.40140533447266	-411.3088989257812	-1036.559692382812	41.69771575927734	-347.488525390625	-793.87841796875	480.7156677246094	-169.6958312988281	-822.2191162109375	733.3216552734375	-128.7099304199219	-993.9790649414062	94.16445922851562	-137.4838562011719	-820.900146484375	340.160400390625	-163.9002227783203	-803.8898315429688	43.84113311767578	-162.679443359375	-863.1219482421875	51.19028091430664	-207.2481842041016	-889.51171875	62.23158645629883	-114.3137969970703	-1045.74267578125	96.75408172607422	-186.8268432617188	-799.0985107421875	674.0667724609375	-532.593505859375	
124	1.23	-958.9420776367188	964.2354736328125	-256.0690002441406	-946.0107421875	965.6321411132812	-379.2213439941406	-946.9074096679688	1042.86669921875	-323.763671875	-712.0845947265625	1184.224853515625	-323.9695434570312	-948.1907958984375	1148.042114257812	-318.4691467285156	-880.1290283203125	1371.805541992188	-315.6634826660156	-737.5091552734375	1282.106201171875	-321.7941284179688	-941.2373657226562	1256.080932617188	-229.1639862060547	-914.0440063476562	1321.387939453125	-401.0894470214844	-820.4188232421875	1362.3955078125	-477.2890930175781	-849.312744140625	1237.944946289062	-536.4014282226562	-858.4173583984375	1028.405151367188	-567.6958618164062	-922.3125610351562	1023.543334960938	-490.1368713378906	-784.1708374023438	830.9359741210938	-539.3156127929688	-871.4200439453125	804.1327514648438	-570.26904296875	-848.191650390625	941.1417846679688	-572.2427978515625	-850.704345703125	748.7550659179688	-570.1337280273438	-785.6310424804688	753.4105834960938	-560.7070922851562	-825.1206665039062	1362.193359375	-170.43408203125	-848.7728881835938	1297.747680664062	-112.6347579956055	-865.6707763671875	1032.499633789062	-59.06708526611328	-916.9156494140625	1015.788330078125	-97.33021545410156	-780.0091552734375	821.9681396484375	-87.40599060058594	-851.2538452148438	805.3796997070312	-33.97365951538086	-865.838134765625	977.7286987304688	-51.016845703125	-787.0277709960938	664.9739990234375	-73.18988037109375	-768.1940307617188	731.5357055664062	-58.0036506652832	-834.0261840820312	735.9435424804688	-30.16349411010742	-833.0723266601562	1511.39501953125	-227.2516784667969	-691.3604736328125	1577.907836914062	-351.9482727050781	-705.6207275390625	1564.111328125	-226.4119262695312	-829.3433227539062	1525.342041015625	-386.1743469238281	-833.33642578125	886.57666015625	-503.9468383789062	-862.8421630859375	861.4205932617188	-124.0087203979492	-761.1063232421875	905.6673583984375	-184.7061462402344	-745.2591552734375	915.2786865234375	-426.6150207519531	-853.0840454101562	465.3284912109375	-441.9385375976562	-826.0823974609375	620.6444702148438	-473.4171752929688	-986.2350463867188	48.08560943603516	-406.0892639160156	-895.89501953125	319.6373901367188	-436.5360107421875	-789.1284790039062	38.6442756652832	-340.2806701660156	-867.2720947265625	41.99482727050781	-310.3184814453125	-875.7462158203125	47.36331939697266	-411.3526306152344	-1036.593505859375	41.6956901550293	-347.4931640625	-784.20556640625	482.1879577636719	-171.4402770996094	-818.3463134765625	734.072021484375	-130.0477905273438	-990.5079345703125	99.88003540039062	-139.9056091308594	-812.3790893554688	342.5303955078125	-165.7535247802734	-802.0863037109375	44.27649307250977	-163.0255737304688	-860.2928466796875	52.59519195556641	-208.2415161132812	-887.370849609375	65.00564575195312	-115.6073303222656	-1041.48876953125	103.5652084350586	-189.810791015625	-796.6067504882812	673.8064575195312	-534.4052734375	
